<?xml version="1.0" encoding="UTF-8"?>
<svg xmlns="http://www.w3.org/2000/svg" xmlns:xlink="http://www.w3.org/1999/xlink" width="16px" height="16px" viewBox="0 0 16 16" version="1.1">
<g id="surface1">
<path style=" stroke:none;fill-rule:nonzero;fill:rgb(0%,0%,0%);fill-opacity:1;" d="M 4.332031 8 L 5.800781 6.464844 C 6.066406 6.199219 6.066406 5.800781 5.800781 5.535156 C 5.535156 5.265625 5.132812 5.265625 4.867188 5.535156 L 3 7.535156 C 2.734375 7.800781 2.800781 8.199219 3 8.464844 L 4.867188 10.464844 C 5.132812 10.734375 5.535156 10.734375 5.800781 10.464844 C 6.066406 10.199219 6.066406 9.800781 5.800781 9.535156 Z M 4.332031 8 "/>
<path style=" stroke:none;fill-rule:nonzero;fill:rgb(0%,0%,0%);fill-opacity:1;" d="M 13.132812 7.535156 L 11.132812 5.535156 C 10.867188 5.265625 10.464844 5.265625 10.199219 5.535156 C 9.933594 5.800781 9.933594 6.199219 10.199219 6.464844 L 11.734375 8 L 10.199219 9.535156 C 9.933594 9.800781 9.933594 10.199219 10.199219 10.464844 C 10.464844 10.734375 10.867188 10.734375 11.132812 10.464844 L 13.132812 8.464844 C 13.398438 8.199219 13.398438 7.800781 13.132812 7.535156 Z M 13.132812 7.535156 "/>
<path style=" stroke:none;fill-rule:nonzero;fill:rgb(0%,0%,0%);fill-opacity:1;" d="M 8.867188 5.332031 C 8.535156 5.199219 8.132812 5.398438 8 5.734375 L 6.667969 9.734375 C 6.535156 10.066406 6.734375 10.464844 7.066406 10.601562 C 7.464844 10.734375 7.867188 10.535156 7.933594 10.199219 L 9.265625 6.199219 C 9.398438 5.867188 9.199219 5.464844 8.867188 5.332031 Z M 8.867188 5.332031 "/>
<path style=" stroke:none;fill-rule:nonzero;fill:rgb(0%,0%,0%);fill-opacity:1;" d="M 13.332031 0 L 2.667969 0 C 1.199219 0 0 1.199219 0 2.667969 L 0 13.332031 C 0 14.800781 1.199219 16 2.667969 16 L 13.332031 16 C 14.800781 16 16 14.800781 16 13.332031 L 16 2.667969 C 16 1.199219 14.800781 0 13.332031 0 Z M 14.667969 13.332031 C 14.667969 14.066406 14.066406 14.667969 13.332031 14.667969 L 2.667969 14.667969 C 1.933594 14.667969 1.332031 14.066406 1.332031 13.332031 L 1.332031 2.667969 C 1.332031 1.933594 1.933594 1.332031 2.667969 1.332031 L 13.332031 1.332031 C 14.066406 1.332031 14.667969 1.933594 14.667969 2.667969 Z M 14.667969 13.332031 "/>
</g>
</svg>
