<?xml version="1.0" encoding="UTF-8"?>
<svg xmlns="http://www.w3.org/2000/svg" xmlns:xlink="http://www.w3.org/1999/xlink" width="32px" height="32px" viewBox="0 0 32 32" version="1.1">
<defs>
<linearGradient id="linear0" gradientUnits="userSpaceOnUse" x1="0.24419" y1="0.75581" x2="0.75194" y2="0.25194" gradientTransform="matrix(32,0,0,32,0,0)">
<stop offset="0" style="stop-color:rgb(26.666667%,43.137255%,100%);stop-opacity:1;"/>
<stop offset="0.36661" style="stop-color:rgb(18.039216%,58.823529%,100%);stop-opacity:1;"/>
<stop offset="0.83221" style="stop-color:rgb(69.411765%,77.254902%,100%);stop-opacity:1;"/>
</linearGradient>
</defs>
<g id="surface1">
<path style=" stroke:none;fill-rule:evenodd;fill:url(#linear0);" d="M 16.453125 7.9375 C 16.308594 7.445312 16.199219 6.945312 16.125 6.4375 L 16.125 4.960938 C 18.882812 4.988281 21.527344 6.050781 23.539062 7.933594 L 16.453125 7.933594 Z M 15.535156 7.9375 C 15.683594 7.441406 15.800781 6.929688 15.875 6.410156 L 15.875 4.960938 C 13.117188 4.988281 10.472656 6.050781 8.460938 7.933594 L 15.53125 7.933594 Z M 8.289062 8.1875 L 15.453125 8.1875 C 15.347656 8.503906 15.230469 8.808594 15.097656 9.113281 C 14.546875 10.433594 13.75 11.628906 12.75 12.648438 Z M 7.9375 7.9375 L 3.96875 7.9375 L 3.96875 8.1875 L 7.855469 8.1875 C 5.863281 10.253906 4.742188 13.003906 4.714844 15.875 L 0 15.875 L 0 16.125 L 4.714844 16.125 C 4.742188 18.996094 5.863281 21.746094 7.855469 23.8125 L 3.96875 23.8125 L 3.96875 24.0625 L 7.9375 24.0625 L 7.9375 28.03125 L 8.1875 28.03125 L 8.1875 24.144531 C 10.253906 26.136719 13.003906 27.257812 15.875 27.285156 L 15.875 32 L 16.125 32 L 16.125 27.285156 C 18.996094 27.257812 21.746094 26.136719 23.8125 24.144531 L 23.8125 28.03125 L 24.0625 28.03125 L 24.0625 24.0625 L 28.03125 24.0625 L 28.03125 23.8125 L 24.144531 23.8125 C 26.136719 21.746094 27.257812 18.996094 27.285156 16.125 L 32 16.125 L 32 15.875 L 27.285156 15.875 C 27.257812 13.003906 26.136719 10.253906 24.144531 8.1875 L 28.03125 8.1875 L 28.03125 7.9375 L 24.0625 7.9375 L 24.0625 3.96875 L 23.8125 3.96875 L 23.8125 7.855469 C 21.746094 5.863281 18.996094 4.742188 16.125 4.714844 L 16.125 0 L 15.875 0 L 15.875 4.714844 C 13.003906 4.742188 10.253906 5.863281 8.1875 7.855469 L 8.1875 3.96875 L 7.9375 3.96875 Z M 16.125 27.039062 C 18.882812 27.011719 21.527344 25.949219 23.539062 24.0625 L 16.453125 24.0625 C 16.308594 24.550781 16.199219 25.050781 16.125 25.5625 Z M 15.875 25.589844 C 15.800781 25.074219 15.683594 24.5625 15.53125 24.0625 L 8.460938 24.0625 C 10.472656 25.949219 13.117188 27.011719 15.875 27.039062 Z M 4.960938 15.875 L 6.4375 15.875 C 6.945312 15.800781 7.445312 15.691406 7.9375 15.546875 L 7.9375 8.460938 C 6.050781 10.472656 4.988281 13.117188 4.960938 15.875 Z M 6.410156 16.125 L 4.960938 16.125 C 4.988281 18.882812 6.050781 21.527344 7.933594 23.539062 L 7.933594 16.46875 C 7.4375 16.316406 6.925781 16.199219 6.410156 16.125 Z M 27.035156 15.875 C 27.011719 13.117188 25.949219 10.472656 24.0625 8.460938 L 24.0625 15.546875 C 24.550781 15.691406 25.050781 15.800781 25.5625 15.875 L 27.039062 15.875 Z M 25.589844 16.125 C 25.070312 16.199219 24.558594 16.316406 24.0625 16.46875 L 24.0625 23.539062 C 25.949219 21.527344 27.011719 18.882812 27.039062 16.125 Z M 23.8125 23.710938 L 23.8125 16.546875 C 23.496094 16.652344 23.191406 16.769531 22.886719 16.902344 C 21.566406 17.453125 20.371094 18.25 19.351562 19.25 Z M 23.8125 15.472656 L 23.8125 8.203125 L 23.796875 8.1875 L 16.527344 8.1875 C 16.628906 8.5 16.746094 8.808594 16.875 9.113281 C 17.453125 10.449219 18.277344 11.667969 19.300781 12.699219 C 20.332031 13.726562 21.550781 14.550781 22.886719 15.125 C 23.191406 15.253906 23.496094 15.371094 23.8125 15.472656 Z M 8.1875 23.796875 L 8.1875 16.546875 C 8.5 16.652344 8.808594 16.769531 9.113281 16.902344 C 10.453125 17.464844 11.671875 18.277344 12.699219 19.300781 C 13.722656 20.328125 14.535156 21.546875 15.097656 22.886719 C 15.230469 23.191406 15.351562 23.496094 15.453125 23.8125 L 8.203125 23.8125 Z M 8.1875 15.472656 L 8.1875 8.433594 L 12.574219 12.820312 C 11.566406 13.792969 10.394531 14.570312 9.113281 15.125 C 8.808594 15.253906 8.5 15.371094 8.1875 15.472656 Z M 16.527344 23.8125 L 23.566406 23.8125 L 19.179688 19.425781 C 18.207031 20.433594 17.429688 21.605469 16.875 22.886719 C 16.746094 23.191406 16.628906 23.5 16.527344 23.8125 Z M 13.402344 13.402344 C 12.292969 14.503906 10.992188 15.386719 9.558594 16.011719 C 10.996094 16.621094 12.296875 17.5 13.402344 18.597656 C 14.5 19.703125 15.378906 21.003906 15.988281 22.441406 C 16.613281 21.007812 17.496094 19.707031 18.597656 18.597656 C 19.703125 17.5 21.003906 16.621094 22.441406 16.011719 C 21.007812 15.386719 19.707031 14.503906 18.597656 13.402344 C 17.496094 12.292969 16.613281 10.992188 15.988281 9.558594 C 15.378906 10.996094 14.5 12.296875 13.402344 13.402344 Z M 13.402344 13.402344 "/>
</g>
</svg>
