<?xml version="1.0" encoding="UTF-8"?>
<svg xmlns="http://www.w3.org/2000/svg" xmlns:xlink="http://www.w3.org/1999/xlink" width="48px" height="48px" viewBox="0 0 48 48" version="1.1">
<defs>
<linearGradient id="linear0" gradientUnits="userSpaceOnUse" x1="0.24419" y1="0.75581" x2="0.75194" y2="0.25194" gradientTransform="matrix(48,0,0,48,0,0)">
<stop offset="0" style="stop-color:rgb(26.666667%,43.137255%,100%);stop-opacity:1;"/>
<stop offset="0.36661" style="stop-color:rgb(18.039216%,58.823529%,100%);stop-opacity:1;"/>
<stop offset="0.83221" style="stop-color:rgb(69.411765%,77.254902%,100%);stop-opacity:1;"/>
</linearGradient>
</defs>
<g id="surface1">
<path style=" stroke:none;fill-rule:evenodd;fill:url(#linear0);" d="M 24.679688 11.90625 C 24.464844 11.167969 24.296875 10.417969 24.1875 9.65625 L 24.1875 7.441406 C 28.324219 7.480469 32.292969 9.074219 35.308594 11.902344 L 24.679688 11.902344 Z M 23.300781 11.90625 C 23.527344 11.160156 23.699219 10.394531 23.8125 9.617188 L 23.8125 7.441406 C 19.675781 7.480469 15.707031 9.074219 12.691406 11.902344 L 23.296875 11.902344 Z M 12.433594 12.28125 L 23.179688 12.28125 C 23.023438 12.753906 22.84375 13.214844 22.644531 13.671875 C 21.820312 15.648438 20.625 17.445312 19.125 18.972656 Z M 11.90625 11.90625 L 5.953125 11.90625 L 5.953125 12.28125 L 11.785156 12.28125 C 8.796875 15.382812 7.113281 19.507812 7.070312 23.8125 L 0 23.8125 L 0 24.1875 L 7.070312 24.1875 C 7.113281 28.492188 8.796875 32.617188 11.785156 35.71875 L 5.953125 35.71875 L 5.953125 36.09375 L 11.90625 36.09375 L 11.90625 42.046875 L 12.28125 42.046875 L 12.28125 36.214844 C 15.382812 39.203125 19.507812 40.886719 23.8125 40.929688 L 23.8125 48 L 24.1875 48 L 24.1875 40.929688 C 28.492188 40.886719 32.617188 39.203125 35.71875 36.214844 L 35.71875 42.046875 L 36.09375 42.046875 L 36.09375 36.09375 L 42.046875 36.09375 L 42.046875 35.71875 L 36.214844 35.71875 C 39.203125 32.617188 40.886719 28.492188 40.929688 24.1875 L 48 24.1875 L 48 23.8125 L 40.929688 23.8125 C 40.886719 19.507812 39.203125 15.382812 36.214844 12.28125 L 42.046875 12.28125 L 42.046875 11.90625 L 36.09375 11.90625 L 36.09375 5.953125 L 35.71875 5.953125 L 35.71875 11.785156 C 32.617188 8.796875 28.492188 7.113281 24.1875 7.070312 L 24.1875 0 L 23.8125 0 L 23.8125 7.070312 C 19.507812 7.113281 15.382812 8.796875 12.28125 11.785156 L 12.28125 5.953125 L 11.90625 5.953125 Z M 24.1875 40.558594 C 28.324219 40.515625 32.292969 38.921875 35.308594 36.09375 L 24.679688 36.09375 C 24.464844 36.824219 24.300781 37.578125 24.1875 38.34375 Z M 23.8125 38.382812 C 23.699219 37.609375 23.527344 36.84375 23.296875 36.09375 L 12.691406 36.09375 C 15.707031 38.921875 19.675781 40.515625 23.8125 40.558594 Z M 7.441406 23.8125 L 9.65625 23.8125 C 10.417969 23.703125 11.167969 23.535156 11.90625 23.320312 L 11.90625 12.691406 C 9.074219 15.707031 7.484375 19.675781 7.441406 23.8125 Z M 9.617188 24.1875 L 7.441406 24.1875 C 7.480469 28.324219 9.074219 32.292969 11.902344 35.308594 L 11.902344 24.703125 C 11.15625 24.472656 10.390625 24.300781 9.613281 24.1875 Z M 40.554688 23.8125 C 40.515625 19.675781 38.921875 15.707031 36.09375 12.691406 L 36.09375 23.320312 C 36.824219 23.535156 37.578125 23.699219 38.34375 23.8125 L 40.558594 23.8125 Z M 38.382812 24.1875 C 37.605469 24.300781 36.839844 24.472656 36.09375 24.703125 L 36.09375 35.308594 C 38.921875 32.292969 40.515625 28.324219 40.558594 24.1875 Z M 35.71875 35.566406 L 35.71875 24.820312 C 35.246094 24.976562 34.785156 25.15625 34.328125 25.355469 C 32.351562 26.179688 30.554688 27.375 29.027344 28.875 Z M 35.71875 23.207031 L 35.71875 12.304688 L 35.695312 12.28125 L 24.792969 12.28125 C 24.945312 12.75 25.117188 13.214844 25.3125 13.671875 C 26.179688 15.675781 27.414062 17.5 28.953125 19.046875 C 30.5 20.589844 32.324219 21.824219 34.328125 22.6875 C 34.785156 22.882812 35.246094 23.054688 35.71875 23.207031 Z M 12.28125 35.695312 L 12.28125 24.820312 C 12.75 24.976562 13.214844 25.152344 13.671875 25.355469 C 15.679688 26.195312 17.507812 27.414062 19.046875 28.953125 C 20.585938 30.492188 21.804688 32.320312 22.644531 34.328125 C 22.847656 34.785156 23.027344 35.246094 23.179688 35.71875 L 12.304688 35.71875 Z M 12.28125 23.207031 L 12.28125 12.652344 L 18.859375 19.230469 C 17.351562 20.6875 15.59375 21.855469 13.671875 22.6875 C 13.214844 22.882812 12.75 23.054688 12.28125 23.207031 Z M 24.792969 35.71875 L 35.347656 35.71875 L 28.769531 29.140625 C 27.3125 30.648438 26.144531 32.40625 25.3125 34.328125 C 25.117188 34.785156 24.945312 35.25 24.792969 35.71875 Z M 20.101562 20.101562 C 18.441406 21.753906 16.488281 23.082031 14.339844 24.019531 C 16.492188 24.933594 18.445312 26.25 20.101562 27.898438 C 21.75 29.554688 23.066406 31.507812 23.980469 33.660156 C 24.917969 31.511719 26.246094 29.558594 27.898438 27.898438 C 29.554688 26.25 31.507812 24.933594 33.660156 24.019531 C 31.511719 23.082031 29.558594 21.753906 27.898438 20.101562 C 26.246094 18.441406 24.917969 16.488281 23.980469 14.339844 C 23.066406 16.492188 21.75 18.445312 20.101562 20.101562 Z M 20.101562 20.101562 "/>
</g>
</svg>
