<?xml version="1.0" encoding="UTF-8"?>
<svg xmlns="http://www.w3.org/2000/svg" xmlns:xlink="http://www.w3.org/1999/xlink" width="16px" height="16px" viewBox="0 0 16 16" version="1.1">
<g id="surface1">
<path style=" stroke:none;fill-rule:evenodd;fill:rgb(0%,0%,0%);fill-opacity:1;" d="M 8.003906 0.808594 C 6.445312 0.808594 5.179688 2.074219 5.179688 3.628906 L 5.179688 7.664062 C 5.179688 9.222656 6.445312 10.488281 8.003906 10.488281 C 9.558594 10.488281 10.828125 9.222656 10.828125 7.664062 L 10.828125 3.628906 C 10.828125 2.074219 9.558594 0.808594 8.003906 0.808594 M 3.566406 5.917969 L 3.566406 7.863281 C 3.566406 10.308594 5.554688 12.300781 8.003906 12.300781 C 10.449219 12.300781 12.441406 10.308594 12.441406 7.863281 L 12.441406 5.917969 L 13.246094 5.917969 L 13.246094 7.863281 C 13.246094 10.617188 11.109375 12.882812 8.40625 13.089844 L 8.40625 15.191406 L 10.421875 15.191406 L 10.421875 16 L 5.582031 16 L 5.582031 15.191406 L 7.597656 15.191406 L 7.597656 13.089844 C 4.894531 12.882812 2.757812 10.617188 2.757812 7.863281 L 2.757812 5.917969 Z M 8.003906 0 C 10.003906 0 11.632812 1.628906 11.632812 3.628906 L 11.632812 7.664062 C 11.632812 9.667969 10.003906 11.296875 8.003906 11.296875 C 6 11.296875 4.371094 9.667969 4.371094 7.664062 L 4.371094 3.628906 C 4.371094 1.628906 6 0 8.003906 0 Z M 8.003906 0 "/>
</g>
</svg>
