<?xml version="1.0" encoding="UTF-8"?>
<svg xmlns="http://www.w3.org/2000/svg" xmlns:xlink="http://www.w3.org/1999/xlink" width="16px" height="16px" viewBox="0 0 16 16" version="1.1">
<g id="surface1">
<path style=" stroke:none;fill-rule:evenodd;fill:rgb(0%,0%,0%);fill-opacity:1;" d="M 3.546875 5.917969 L 3.546875 7.863281 C 3.546875 10.308594 5.539062 12.300781 7.984375 12.300781 C 10.433594 12.300781 12.421875 10.308594 12.421875 7.863281 L 12.421875 5.917969 L 13.230469 5.917969 L 13.230469 7.863281 C 13.230469 10.617188 11.09375 12.882812 8.390625 13.089844 L 8.390625 15.191406 L 10.40625 15.191406 L 10.40625 16 L 5.566406 16 L 5.566406 15.191406 L 7.582031 15.191406 L 7.582031 13.089844 C 4.878906 12.882812 2.742188 10.617188 2.742188 7.863281 L 2.742188 5.917969 Z M 7.984375 0 C 9.988281 0 11.617188 1.628906 11.617188 3.628906 L 11.617188 7.664062 C 11.617188 9.667969 9.988281 11.296875 7.984375 11.296875 C 5.984375 11.296875 4.355469 9.667969 4.355469 7.664062 L 4.355469 3.628906 C 4.355469 1.628906 5.984375 0 7.984375 0 Z M 7.984375 0 "/>
</g>
</svg>
